<svg width="38" height="38" viewBox="0 0 38 38" fill="none" xmlns="http://www.w3.org/2000/svg">
<path fill-rule="evenodd" clip-rule="evenodd" d="M19.0002 1.58334C9.38141 1.58334 1.5835 9.38126 1.5835 19C1.5835 28.6188 9.38141 36.4167 19.0002 36.4167C28.6189 36.4167 36.4168 28.6188 36.4168 19C36.4168 9.38126 28.6189 1.58334 19.0002 1.58334ZM26.5495 16.055C26.6885 15.8961 26.7943 15.711 26.8608 15.5106C26.9272 15.3102 26.9528 15.0985 26.9363 14.8881C26.9197 14.6776 26.8612 14.4726 26.7642 14.285C26.6672 14.0975 26.5336 13.9313 26.3714 13.7961C26.2093 13.661 26.0217 13.5596 25.8197 13.498C25.6178 13.4364 25.4056 13.4159 25.1956 13.4375C24.9855 13.4591 24.782 13.5225 24.5968 13.624C24.4117 13.7255 24.2487 13.863 24.1175 14.0283L17.3092 22.1968L13.7862 18.6723C13.4876 18.3838 13.0877 18.2243 12.6725 18.2279C12.2574 18.2315 11.8603 18.398 11.5667 18.6915C11.2731 18.9851 11.1066 19.3822 11.103 19.7974C11.0994 20.2125 11.259 20.6125 11.5474 20.9111L16.2974 25.6611C16.453 25.8166 16.6392 25.9379 16.8443 26.0174C17.0494 26.0969 17.2688 26.1329 17.4885 26.1229C17.7082 26.1129 17.9235 26.0572 18.1205 25.9595C18.3175 25.8617 18.492 25.724 18.6328 25.555L26.5495 16.055Z" fill="#1935CA"/>
</svg>
