<svg width="100" height="100" viewBox="0 0 100 100" fill="none" xmlns="http://www.w3.org/2000/svg">
<g clip-path="url(#clip0_1548_117)">
<path d="M77.5368 50.4379C78.8452 49.2611 79.5385 47.7713 79.5001 46.1897C79.5001 41.6231 76.1268 39.0014 70.2468 39.0014L67.4835 39.0065C65.6519 39.0065 64.0552 38.9815 62.5136 38.8899C64.4869 34.295 65.6003 29.4849 65.7503 24.8767C65.7503 18.3684 62.2154 17 59.2521 17C56.3422 17 54.7154 19.0066 53.6221 20.7551C53.2555 21.3418 52.4022 23.0201 51.4988 24.7933C50.7323 26.3017 49.9705 27.7966 49.6088 28.4216C49.0772 29.34 48.5489 30.1448 48.0321 30.8433L47.4504 31.5499C45.7704 33.605 44.0471 35.7198 41.9522 37.2731C41.5222 36.6581 40.8056 36.2532 39.9989 36.2532H24.8773C23.5689 36.2532 22.499 37.3182 22.499 38.6264V71.6296C22.499 72.938 23.5689 74.0028 24.8773 74.0028H39.9989C41.0239 74.0028 41.8989 73.3528 42.2305 72.4444C42.8805 72.561 43.5288 72.6694 44.1788 72.776L44.7737 72.8743C49.5637 73.5926 54.8369 74.0026 59.2519 74.0026H67.4986C72.2103 74.0026 75.3751 71.1126 75.3702 66.7376L75.3319 66.156C75.2837 65.4476 75.2636 65.3409 75.0286 64.7593C74.9702 64.6177 74.897 64.4325 74.7985 64.1777C76.6635 62.4777 77.1669 60.1294 76.1651 57.3127C78.035 55.6129 78.5383 53.2596 77.5368 50.4379ZM37.6253 69.2495H27.2486V41.003H37.6253V69.2495ZM73.6452 47.4428C72.9519 47.8678 72.0003 48.4494 72.0003 49.6262C72.0003 50.6027 72.4687 51.1744 72.8103 51.5945C73.137 51.9945 73.372 52.2879 73.372 53.0644C73.372 53.5912 73.0554 53.8361 72.2687 54.3195C71.5753 54.7445 70.6237 55.3261 70.6237 56.5029C70.6237 57.4796 71.0921 58.0511 71.4337 58.4712C71.7653 58.8712 72.0003 59.1646 72.0003 59.9412C72.0003 60.4679 71.6837 60.7128 70.8919 61.1962C70.1985 61.6212 69.247 62.2029 69.247 63.3796C69.247 64.3564 69.7153 64.9278 70.0569 65.348C70.3886 65.748 70.6235 66.0413 70.6235 66.8179C70.6235 68.4345 69.5735 69.2546 67.4986 69.2546L59.0469 69.2495C53.5201 69.0444 47.812 68.8345 42.377 67.6046V42.7463C46.0003 40.368 49.1737 37.3313 51.8002 33.728C53.5869 31.3446 54.8369 28.7865 55.9402 26.5314C57.0869 24.183 58.2736 21.7564 59.2502 21.7564C60.3052 21.7564 60.9984 21.9715 60.9984 24.8763C60.9984 30.1163 58.4734 36.5712 56.9801 39.5546C56.5168 40.4829 56.4918 41.2928 56.9117 41.9711C58.0099 43.7528 61.5951 43.7528 70.2466 43.7528C74.7483 43.7528 74.7483 45.4612 74.7483 46.1895C74.7485 46.7145 74.4317 46.9596 73.6452 47.4428Z" fill="#1935CA"/>
<path d="M99.02 47.028L94.6517 41.1181L96.4267 33.9865C96.9567 31.8549 96.0351 29.6266 94.1517 28.495L87.8533 24.7065L86.7633 17.4382C86.4383 15.2665 84.7316 13.5599 82.56 13.2349L75.2916 12.1449L71.5034 5.84665C70.585 4.31833 68.9434 3.42342 67.22 3.42342C66.82 3.42342 66.4134 3.47166 66.0116 3.57166L58.88 5.34665L52.9703 0.978315C52.0887 0.326561 51.0453 0 50.0004 0C48.9555 0 47.9121 0.326756 47.0287 0.978315L41.1188 5.34665L33.9872 3.57166C33.5854 3.47166 33.1806 3.42342 32.7788 3.42342C31.0538 3.42342 29.4138 4.32009 28.4939 5.84665L24.7056 12.1449L17.4391 13.2349C15.2674 13.5599 13.5623 15.2665 13.2358 17.4382L12.1455 24.7065L5.84733 28.4948C3.9657 29.6264 3.04227 31.8547 3.57234 33.9863L5.34733 41.1179L0.978803 47.028C-0.326268 48.7946 -0.326268 51.2063 0.978803 52.9729L5.34714 58.8829L3.57215 66.0145C3.04207 68.1461 3.96375 70.3744 5.84713 71.506L12.1453 75.2943L13.2354 82.5626C13.5604 84.7343 15.267 86.4409 17.4387 86.7659L24.7052 87.8559L28.4935 94.1541C29.4118 95.6824 31.0534 96.5774 32.7784 96.5774C33.1784 96.5774 33.5835 96.5291 33.9868 96.4291L41.1184 94.6541L47.0283 99.0225C47.9117 99.6725 48.9551 99.9992 50 99.9992C51.0449 99.9992 52.0883 99.6727 52.9717 99.0209L58.8816 94.6526L66.0132 96.4276C66.4149 96.5275 66.8198 96.5758 67.2216 96.5758C68.9466 96.5758 70.5866 95.6791 71.5049 94.1526L75.2932 87.8544L82.5615 86.7643C84.7332 86.4393 86.4398 84.7343 86.7648 82.561L87.8548 75.2927L94.1531 71.5045C96.0347 70.3728 96.9581 68.1445 96.428 66.0129L94.653 58.8813L99.0214 52.9714C100.327 51.2063 100.327 48.7931 99.02 47.028ZM89.2316 57.803L91.5749 67.2195L83.2599 72.2213L81.8199 81.8179L72.2233 83.2561L67.2216 91.5727L57.805 89.2294L50 94.9992L42.1967 89.2309L32.7802 91.5743L27.7784 83.2577L18.1818 81.8194L16.7436 72.2228L8.42856 67.2211L10.7719 57.8045L5.00026 49.9995L10.7686 42.1962L8.42524 32.7797L16.7402 27.778L18.1785 18.1813L27.7751 16.7431L32.7769 8.42651L42.1934 10.7699L50 4.99997L57.8033 10.7683L67.2198 8.42495L72.2215 16.7415L81.8182 18.1798L83.2582 27.7764L91.5732 32.7781L89.23 42.1947L94.9999 49.9997L89.2316 57.803Z" fill="black"/>
</g>
<defs>
<clipPath id="clip0_1548_117">
<rect width="100" height="100" fill="white"/>
</clipPath>
</defs>
</svg>
