<svg width="28" height="36" viewBox="0 0 28 36" fill="none" xmlns="http://www.w3.org/2000/svg">
<path d="M27.3076 11.2348C27.3076 8.25515 25.8691 5.39753 23.3085 3.2906C20.7479 1.18366 17.275 0 13.6538 0C10.0326 0 6.55969 1.18366 3.9991 3.2906C1.43852 5.39753 0 8.25515 0 11.2348C0 11.8307 0.287705 12.4023 0.799821 12.8236C1.31194 13.245 2.00652 13.4818 2.73076 13.4818C3.455 13.4818 4.14958 13.245 4.6617 12.8236C5.17381 12.4023 5.46152 11.8307 5.46152 11.2348C5.46152 9.90159 5.94199 8.59831 6.84216 7.48977C7.74234 6.38124 9.0218 5.51724 10.5187 5.00704C12.0157 4.49684 13.6629 4.36335 15.252 4.62345C16.8412 4.88355 18.3009 5.52555 19.4466 6.46828C20.5923 7.41101 21.3726 8.61212 21.6887 9.91973C22.0048 11.2273 21.8425 12.5827 21.2225 13.8144C20.6024 15.0462 19.5524 16.0989 18.2052 16.8396C16.858 17.5803 15.2741 17.9757 13.6538 17.9757C12.9296 17.9757 12.235 18.2124 11.7229 18.6338C11.2107 19.0552 10.923 19.6267 10.923 20.2227V24.7166C10.923 25.3125 11.2107 25.884 11.7229 26.3054C12.235 26.7268 12.9296 26.9635 13.6538 26.9635C14.378 26.9635 15.0726 26.7268 15.5847 26.3054C16.0968 25.884 16.3846 25.3125 16.3846 24.7166V22.2449C19.4686 21.7269 22.2404 20.3481 24.2309 18.3417C26.2213 16.3354 27.3082 13.8248 27.3076 11.2348Z" fill="white"/>
<path d="M13.6541 35.951C15.1623 35.951 16.3849 34.945 16.3849 33.704C16.3849 32.463 15.1623 31.457 13.6541 31.457C12.1459 31.457 10.9233 32.463 10.9233 33.704C10.9233 34.945 12.1459 35.951 13.6541 35.951Z" fill="white"/>
</svg>
