<svg width="435" height="89" viewBox="0 0 435 89" fill="none" xmlns="http://www.w3.org/2000/svg">
<path d="M156.147 89L147.327 74.737C146.478 73.344 145.327 72.2841 143.872 71.5573C142.478 70.8911 140.75 70.558 138.689 70.558L147.691 67.015C149.57 67.015 151.206 67.2269 152.601 67.6509C153.995 68.0749 155.237 68.7713 156.329 69.7404C157.42 70.7094 158.45 72.0418 159.42 73.7377L166.057 84.2759L156.147 89ZM138.78 70.558C134.113 70.558 129.87 69.8009 126.051 68.2868C122.293 66.7121 119.05 64.4712 116.322 61.5641C113.655 58.657 111.594 55.1745 110.139 51.1167C108.685 47.0589 107.957 42.5468 107.957 37.5805C107.957 32.5536 108.685 28.0415 110.139 24.0442C111.594 19.9864 113.655 16.5342 116.322 13.6876C119.05 10.7805 122.293 8.56992 126.051 7.0558C129.87 5.48111 134.113 4.69377 138.78 4.69377C143.448 4.69377 147.66 5.48111 151.419 7.0558C155.237 8.56992 158.48 10.7503 161.147 13.5968C163.875 16.4433 165.966 19.8955 167.421 23.9534C168.876 27.9507 169.603 32.4627 169.603 37.4896C169.603 42.5165 168.876 47.0589 167.421 51.1167C165.966 55.1745 163.875 58.657 161.147 61.5641C158.48 64.4712 155.237 66.7121 151.419 68.2868C147.66 69.8009 143.448 70.558 138.78 70.558ZM138.78 60.5648C142.72 60.5648 146.054 59.6563 148.782 57.8394C151.57 56.0225 153.692 53.3879 155.147 49.9357C156.662 46.4835 157.42 42.3651 157.42 37.5805C157.42 32.7353 156.692 28.6169 155.237 25.2252C153.783 21.773 151.661 19.1688 148.873 17.4124C146.084 15.5954 142.72 14.687 138.78 14.687C134.901 14.687 131.567 15.5954 128.779 17.4124C125.99 19.1688 123.839 21.773 122.323 25.2252C120.868 28.6169 120.141 32.7353 120.141 37.5805C120.141 42.3651 120.868 46.4835 122.323 49.9357C123.839 53.3879 125.99 56.0225 128.779 57.8394C131.567 59.6563 134.901 60.5648 138.78 60.5648Z" fill="#1935CA"/>
<path d="M198.258 70.558C194.561 70.558 191.5 69.8918 189.075 68.5594C186.651 67.1664 184.832 65.1072 183.62 62.3818C182.468 59.6563 181.892 56.2647 181.892 52.2069V25.2252H193.258V52.3886C193.258 54.4478 193.53 56.1739 194.076 57.5669C194.682 58.9598 195.561 59.9894 196.713 60.6557C197.925 61.3219 199.441 61.655 201.259 61.655C203.32 61.655 205.108 61.2007 206.623 60.2923C208.199 59.3232 209.412 57.9908 210.26 56.295C211.17 54.5386 211.624 52.5097 211.624 50.2082V25.2252H222.99V69.6495H211.897V60.3831H213.17C211.897 63.6536 209.957 66.1671 207.351 67.9234C204.805 69.6798 201.774 70.558 198.258 70.558Z" fill="#1935CA"/>
<path d="M235.91 15.6863V4.60292H248.639V15.6863H235.91ZM236.637 69.6495V25.2252H248.003V69.6495H236.637Z" fill="#1935CA"/>
<path d="M260.176 69.6495V62.2909L285.271 31.0395V33.7649H260.176V25.2252H295.454V32.5839L270.087 64.1079V61.1099H296.455V69.6495H260.176Z" fill="#1935CA"/>
<path d="M325.902 70.558C321.295 70.558 317.294 69.6193 313.9 67.7417C310.505 65.8642 307.868 63.1994 305.989 59.7472C304.11 56.2344 303.171 52.116 303.171 47.392C303.171 42.6679 304.11 38.5798 305.989 35.1276C307.868 31.6754 310.505 29.0105 313.9 27.133C317.294 25.2555 321.295 24.3168 325.902 24.3168C330.508 24.3168 334.509 25.2555 337.904 27.133C341.298 29.0105 343.935 31.6754 345.814 35.1276C347.693 38.5798 348.633 42.6679 348.633 47.392C348.633 52.116 347.693 56.2344 345.814 59.7472C343.935 63.1994 341.298 65.8642 337.904 67.7417C334.509 69.6193 330.508 70.558 325.902 70.558ZM325.902 61.9275C329.296 61.9275 332.024 60.7162 334.085 58.2936C336.146 55.8105 337.176 52.1766 337.176 47.392C337.176 42.5468 336.146 38.9432 334.085 36.5811C332.024 34.1586 329.296 32.9473 325.902 32.9473C322.507 32.9473 319.78 34.1586 317.719 36.5811C315.658 38.9432 314.627 42.5468 314.627 47.392C314.627 52.1766 315.658 55.8105 317.719 58.2936C319.78 60.7162 322.507 61.9275 325.902 61.9275Z" fill="#1935CA"/>
<path d="M359.832 69.6495V25.2252H370.924V35.9452H370.015C370.864 32.3113 372.531 29.5556 375.016 27.6781C377.501 25.74 380.805 24.6196 384.927 24.3168L388.382 24.0442L389.109 33.674L382.563 34.31C378.865 34.6734 376.077 35.8241 374.198 37.7622C372.319 39.6397 371.379 42.3045 371.379 45.7567V69.6495H359.832Z" fill="#1935CA"/>
<path d="M411.451 70.558C408.238 70.558 405.359 69.9524 402.813 68.7411C400.328 67.4692 398.358 65.7734 396.903 63.6536C395.509 61.5339 394.812 59.1415 394.812 56.4767C394.812 53.2062 395.66 50.6322 397.358 48.7547C399.055 46.8166 401.813 45.4236 405.632 44.5757C409.45 43.7278 414.573 43.3038 420.998 43.3038H425.544V49.8448H421.089C418.24 49.8448 415.845 49.966 413.906 50.2082C411.966 50.3899 410.39 50.723 409.178 51.2076C408.026 51.6315 407.177 52.2372 406.632 53.0245C406.147 53.8118 405.904 54.7809 405.904 55.9316C405.904 57.9302 406.602 59.5655 407.996 60.8374C409.39 62.1092 411.33 62.7451 413.815 62.7451C415.815 62.7451 417.573 62.2909 419.088 61.3824C420.664 60.4134 421.907 59.1113 422.816 57.476C423.725 55.8408 424.18 53.9632 424.18 51.8435V41.396C424.18 38.3678 423.513 36.1875 422.18 34.855C420.846 33.5226 418.603 32.8564 415.451 32.8564C412.966 32.8564 410.42 33.2501 407.814 34.0374C405.207 34.7642 402.571 35.9149 399.904 37.4896L396.63 29.7676C398.206 28.6774 400.055 27.7387 402.177 26.9513C404.359 26.1034 406.632 25.4675 408.996 25.0435C411.421 24.559 413.694 24.3168 415.815 24.3168C420.179 24.3168 423.756 24.983 426.544 26.3154C429.393 27.6478 431.515 29.6768 432.909 32.4022C434.303 35.067 435 38.5192 435 42.7588V69.6495H424.362V60.2014H425.089C424.665 62.3212 423.816 64.1684 422.543 65.7431C421.331 67.2572 419.785 68.4382 417.906 69.2861C416.027 70.134 413.875 70.558 411.451 70.558Z" fill="#1935CA"/>
<path d="M82.7225 41.3265C82.7225 64.1506 64.2045 82.6531 41.3613 82.6531C18.5181 82.6531 0 64.1506 0 41.3265C0 18.5025 18.5181 0 41.3613 0C64.2045 0 82.7225 18.5025 82.7225 41.3265Z" fill="#1935CA"/>
<path d="M16.9313 72.8131C16.9612 70.4375 19.5923 69.02 21.5952 70.3002L31.9366 76.9105C33.8832 78.1548 33.7759 81.0309 31.7418 82.1268L21.2461 87.7818C19.212 88.8777 16.7479 87.3872 16.777 85.0783L16.9313 72.8131Z" fill="#1935CA"/>
<path d="M41.2127 16.1515C46.4014 16.1515 50.5475 17.5082 53.651 20.2215C56.803 22.9348 58.379 26.7625 58.379 31.7046C58.379 36.2591 56.8758 39.8203 53.8692 42.3882C50.9112 44.9077 46.9833 46.1917 42.0855 46.2401L41.7218 51.691H30.811L30.4473 38.1729H34.8116C38.5456 38.1729 41.3824 37.7126 43.3221 36.792C45.3103 35.8715 46.3044 34.1999 46.3044 31.7773C46.3044 30.0815 45.8437 28.749 44.9223 27.78C44.001 26.811 42.7159 26.3264 41.0672 26.3264C39.3215 26.3264 37.9637 26.8352 36.9938 27.8527C36.024 28.8217 35.539 30.1541 35.539 31.8499H23.8281C23.7311 28.8944 24.3372 26.2295 25.6465 23.8554C27.0043 21.4813 28.9925 19.6159 31.6111 18.2592C34.2782 16.8541 37.4787 16.1515 41.2127 16.1515ZM36.4119 70.5872C34.2297 70.5872 32.4355 69.9573 31.0292 68.6976C29.6714 67.3894 28.9925 65.7905 28.9925 63.9008C28.9925 61.9628 29.6714 60.3396 31.0292 59.0314C32.4355 57.7232 34.2297 57.0691 36.4119 57.0691C38.5456 57.0691 40.2913 57.7232 41.6491 59.0314C43.0554 60.3396 43.7585 61.9628 43.7585 63.9008C43.7585 65.7905 43.0554 67.3894 41.6491 68.6976C40.2913 69.9573 38.5456 70.5872 36.4119 70.5872Z" fill="white"/>
</svg>
