<svg width="25" height="25" viewBox="0 0 25 25" fill="none" xmlns="http://www.w3.org/2000/svg">
<path d="M5.20817 2.08334H19.7915C20.0678 2.08334 20.3327 2.19309 20.5281 2.38844C20.7234 2.58379 20.8332 2.84874 20.8332 3.12501V21.875C20.8332 22.1513 20.7234 22.4162 20.5281 22.6116C20.3327 22.8069 20.0678 22.9167 19.7915 22.9167H5.20817C4.9319 22.9167 4.66695 22.8069 4.4716 22.6116C4.27625 22.4162 4.1665 22.1513 4.1665 21.875V3.12501C4.1665 2.84874 4.27625 2.58379 4.4716 2.38844C4.66695 2.19309 4.9319 2.08334 5.20817 2.08334ZM9.37484 11.4583V8.33334L4.1665 12.5L9.37484 16.6667V13.5417H15.6248V11.4583H9.37484Z" fill="currentColor"/>
</svg>
